<?xml version="1.0"?>
<svg width="30" height="30" xmlns="http://www.w3.org/2000/svg" xmlns:svg="http://www.w3.org/2000/svg">
 <g class="layer">
  <title>Layer 1</title>
  <path d="m7,4c-0.26,0 -0.51,0.1 -0.71,0.29l-2,2c-0.39,0.39 -0.39,1.03 0,1.42l7.3,7.29l-7.3,7.29c-0.39,0.39 -0.39,1.03 0,1.42l2,2c0.39,0.39 1.03,0.39 1.42,0l7.29,-7.3l7.29,7.3c0.39,0.39 1.03,0.39 1.42,0l2,-2c0.39,-0.39 0.39,-1.03 0,-1.42l-7.3,-7.29l7.3,-7.29c0.39,-0.39 0.39,-1.03 0,-1.42l-2,-2c-0.39,-0.39 -1.03,-0.39 -1.42,0l-7.29,7.3l-7.29,-7.3c-0.2,-0.19 -0.45,-0.29 -0.71,-0.29z" fill="#ffffff" id="svg_1"/>
 </g>
</svg>